<svg 
    width="100%"
    height="1209"
    viewBox="0 0 1920 1209"
    fill="none"
    xmlns="http://www.w3.org/2000/svg"
>
    <g 
        filter="url(#filter0_b_6_2)"
    >
        <path 
            d="M68.5714 24.6032C45.7143 -8.20106 22.8571 -8.20106 0 24.6032V1209H1920V24.6032C1897.14 57.4074 1874.29 57.4074 1851.43 24.6032C1828.57 -8.20106 1805.71 -8.20106 1782.86 24.6032C1760 57.4074 1737.14 57.4074 1714.29 24.6032C1691.43 -8.20106 1668.57 -8.20106 1645.71 24.6032C1622.86 57.4074 1600 57.4074 1577.14 24.6032C1554.29 -8.20106 1531.43 -8.20106 1508.57 24.6032C1485.71 57.4074 1462.86 57.4074 1440 24.6032C1417.14 -8.20106 1394.29 -8.20106 1371.43 24.6032C1348.57 57.4074 1325.71 57.4074 1302.86 24.6032C1280 -8.20106 1257.14 -8.20106 1234.29 24.6032C1211.43 57.4074 1188.57 57.4074 1165.71 24.6032C1142.86 -8.20106 1120 -8.20106 1097.14 24.6032C1074.29 57.4074 1051.43 57.4074 1028.57 24.6032C1005.71 -8.20106 982.857 -8.20106 960 24.6032C937.143 57.4074 914.286 57.4074 891.429 24.6032C868.571 -8.20106 845.714 -8.20106 822.857 24.6032C800 57.4074 777.143 57.4074 754.286 24.6032C731.429 -8.20106 708.571 -8.20106 685.714 24.6032C662.857 57.4074 640 57.4074 617.143 24.6032C594.286 -8.20106 571.429 -8.20106 548.571 24.6032C525.714 57.4074 502.857 57.4074 480 24.6032C457.143 -8.20106 434.286 -8.20106 411.429 24.6032C388.571 57.4074 365.714 57.4074 342.857 24.6032C320 -8.20106 297.143 -8.20106 274.286 24.6032C251.429 57.4074 228.571 57.4074 205.714 24.6032C182.857 -8.20106 160 -8.20106 137.143 24.6032C114.286 57.4074 91.4286 57.4074 68.5714 24.6032Z"
            fill="#C5E5E7"
            fill-opacity="0.25"
        />
        <path 
            d="M6 1203V26.5127C16.6918 11.6712 26.1892 6 34.2857 6C42.6531 6 52.5168 12.0571 63.6486 28.0333C75.3739 44.8613 88.3673 55.2063 102.857 55.2063C117.347 55.2063 130.34 44.8613 142.066 28.0333C153.198 12.0571 163.061 6 171.429 6C179.796 6 189.66 12.0571 200.791 28.0333C212.517 44.8613 225.51 55.2063 240 55.2063C254.49 55.2063 267.483 44.8613 279.209 28.0333C290.34 12.0571 300.204 6 308.571 6C316.939 6 326.802 12.0571 337.934 28.0333C349.66 44.8613 362.653 55.2063 377.143 55.2063C391.633 55.2063 404.626 44.8613 416.351 28.0333C427.483 12.0571 437.347 6 445.714 6C454.082 6 463.945 12.0571 475.077 28.0333C486.802 44.8613 499.796 55.2063 514.286 55.2063C528.776 55.2063 541.769 44.8613 553.494 28.0333C564.626 12.0571 574.49 6 582.857 6C591.225 6 601.088 12.0571 612.22 28.0333C623.945 44.8613 636.939 55.2063 651.429 55.2063C665.918 55.2063 678.912 44.8613 690.637 28.0333C701.769 12.0571 711.633 6 720 6C728.367 6 738.231 12.0571 749.363 28.0333C761.088 44.8613 774.082 55.2063 788.571 55.2063C803.061 55.2063 816.055 44.8613 827.78 28.0333C838.912 12.0571 848.776 6 857.143 6C865.51 6 875.374 12.0571 886.506 28.0333C898.231 44.8613 911.224 55.2063 925.714 55.2063C940.204 55.2063 953.198 44.8613 964.923 28.0333C976.055 12.0571 985.918 6 994.286 6C1002.65 6 1012.52 12.0571 1023.65 28.0333C1035.37 44.8613 1048.37 55.2063 1062.86 55.2063C1077.35 55.2063 1090.34 44.8613 1102.07 28.0333C1113.2 12.0571 1123.06 6 1131.43 6C1139.8 6 1149.66 12.0571 1160.79 28.0333C1172.52 44.8613 1185.51 55.2063 1200 55.2063C1214.49 55.2063 1227.48 44.8613 1239.21 28.0333C1250.34 12.0571 1260.2 6 1268.57 6C1276.94 6 1286.8 12.0571 1297.93 28.0333C1309.66 44.8613 1322.65 55.2063 1337.14 55.2063C1351.63 55.2063 1364.63 44.8613 1376.35 28.0333C1387.48 12.0571 1397.35 6 1405.71 6C1414.08 6 1423.95 12.0571 1435.08 28.0333C1446.8 44.8613 1459.8 55.2063 1474.29 55.2063C1488.78 55.2063 1501.77 44.8613 1513.49 28.0333C1524.63 12.0571 1534.49 6 1542.86 6C1551.22 6 1561.09 12.0571 1572.22 28.0333C1583.95 44.8613 1596.94 55.2063 1611.43 55.2063C1625.92 55.2063 1638.91 44.8613 1650.64 28.0333C1661.77 12.0571 1671.63 6 1680 6C1688.37 6 1698.23 12.0571 1709.36 28.0333C1721.09 44.8613 1734.08 55.2063 1748.57 55.2063C1763.06 55.2063 1776.05 44.8613 1787.78 28.0333C1798.91 12.0571 1808.78 6 1817.14 6C1825.51 6 1835.37 12.0571 1846.51 28.0333C1858.23 44.8613 1871.22 55.2063 1885.71 55.2063C1895.85 55.2063 1905.25 50.1456 1914 41.3455V1203H6Z" 
            stroke="#B3E1E3"
            stroke-opacity="1"
            stroke-width="12"
        />
    </g>
    <defs>
        <filter
            id="filter0_b_6_2"
            x="-10"
            y="-10"
            width="1940"
            height="1229"
            filterUnits="userSpaceOnUse"
            color-interpolation-filters="sRGB"
        >
            <feFlood
                flood-opacity="0"
                result="BackgroundImageFix"
            />
            <feGaussianBlur
                in="BackgroundImageFix"
                stdDeviation="100"
            />
            <feComposite
                in2="SourceAlpha"
                operator="in"
                result="effect1_backgroundBlur_6_2"
            />
            <feBlend
                mode="normal"
                in="SourceGraphic"
                in2="effect1_backgroundBlur_6_2"
                result="shape"
            />
        </filter>
    </defs>
</svg>
