<?xml version="1.0" encoding="UTF-8"?>
<svg id="Layer_2" data-name="Layer 2" xmlns="http://www.w3.org/2000/svg" viewBox="0 0 55.47 88.86">
  <defs>
    <style>
      .cls-1 {
        fill: none;
      }

      .cls-1, .cls-2, .cls-3 {
        stroke: #231f20;
      }

      .cls-1, .cls-3 {
        stroke-linecap: round;
        stroke-linejoin: round;
        stroke-width: 4px;
      }

      .cls-2 {
        stroke-miterlimit: 10;
        stroke-width: 3px;
      }

      .cls-2, .cls-3 {
        fill: #000;
      }
    </style>
  </defs>
  <g id="logo">
    <path id="left_squirt" data-name="left squirt" class="cls-2" d="M15.4,16.01l.63,14.42L4.44,21.82c-3.9-2.9-3.98-8.94,.1-11.6,.19-.12,.39-.24,.59-.35s.41-.21,.62-.29c4.48-1.88,9.44,1.57,9.65,6.42Z"/>
    <path id="middle_squirt" data-name="middle squirt" class="cls-2" d="M33.94,11.73l-6.2,13.03-6.2-13.03c-2.09-4.39,.67-9.76,5.52-10.2,.22-.02,.45-.03,.68-.03s.46,.01,.68,.03c4.84,.44,7.61,5.81,5.52,10.2Z"/>
    <path id="right_squirt" data-name="right squirt" class="cls-2" d="M40.07,16.01l-.63,14.42,11.58-8.6c3.9-2.9,3.98-8.94-.1-11.6-.19-.12-.39-.24-.59-.35s-.41-.21-.62-.29c-4.48-1.88-9.44,1.57-9.65,6.42Z"/>
    <polyline id="outline" class="cls-1" points="32.97 86.86 32.97 39.39 22.5 39.39 22.5 86.86"/>
    <rect id="fullness" class="cls-3" x="22.5" y="50.07" width="10.47" height="33.92"/>
  </g>
</svg>