<?xml version="1.0" encoding="UTF-8"?>
<svg id="Layer_1" data-name="Layer 1" xmlns="http://www.w3.org/2000/svg" viewBox="0 0 230.24 202.56">
  <defs>
    <style>
      .cls-1 {
        fill: #231f20;
      }

      .cls-1, .cls-2 {
        stroke-width: 6px;
      }

      .cls-1, .cls-2, .cls-3, .cls-4 {
        stroke: #231f20;
        stroke-linecap: round;
        stroke-linejoin: round;
      }

      .cls-2, .cls-3, .cls-4 {
        fill: none;
      }

      .cls-3 {
        stroke-width: 7px;
      }

      .cls-4 {
        stroke-width: 10px;
      }
    </style>
  </defs>
  <polyline class="cls-4" points="145.28 197.14 98.96 78.07 52.64 197.14"/>
  <g>
    <rect class="cls-4" x="5.63" y="59.79" width="155.18" height="20.88" transform="translate(-10.93 15.52) rotate(-10)"/>
    <path class="cls-4" d="M157.82,46.48L198.08,5c30.03,24.69,35.16,53.77,15.38,87.25l-52.02-25.21-3.63-20.56Z"/>
    <path class="cls-3" d="M224.45,45.33l-64.82,11.43,55.38-33.79m-55.38,33.79l63.6,12.81"/>
  </g>
  <polyline id="rope" class="cls-2" points="215.89 188.25 210.81 185.25 215.89 182.25 210.81 179.25 215.89 176.25 210.81 173.25 215.89 170.25 210.81 167.25 215.89 164.25 210.81 161.25 215.89 158.25 210.81 155.25 215.89 152.25 210.81 149.25 215.89 146.25 210.81 143.25 215.89 140.25 210.81 137.25 215.89 134.25 210.81 131.25 215.89 128.25 210.81 125.25 215.89 122.25 210.81 119.25 215.89 116.25 210.81 113.25 215.89 110.25 210.81 107.25 215.89 104.25 210.81 101.25 215.89 98.25 210.81 95.25 215.89 92.25"/>
  <polyline class="cls-1" points="225.24 199.56 225.24 185.34 200.93 185.34 200.93 199.56"/>
  <line class="cls-2" x1="54.19" y1="125.19" x2="143.73" y2="125.19"/>
</svg>